<svg viewBox="0 0 223 84" xmlns="http://www.w3.org/2000/svg" xmlns:xlink="http://www.w3.org/1999/xlink"><clipPath id="a"><path d="m0 0h223v84h-223z"/></clipPath><g clip-path="url(#a)" fill-rule="evenodd" transform=""><path d="m98 26.82 11.215 5.593 14.867-7.413 6.575 3.279a.615.615 0 0 1 0 1.1l-21.163 10.555a.629.629 0 0 1 -.558 0l-10.936-5.453v-7.66zm-10.64 1.08 5.64-2.9v7l-5.64-2.9a.676.676 0 0 1 0-1.195z" fill="#ffa400"/><g fill="#32393a"><path d="m81.585 13.96 27.6-13.7a.614.614 0 0 1 .548 0l27.6 13.7a.6.6 0 0 1 0 1.077l-27.6 13.7a.614.614 0 0 1 -.548 0l-10.361-5.147v16.762a1.33 1.33 0 0 1 -1.224 1.348 1.284 1.284 0 0 1 -1.361-1.273v-17.49a.479.479 0 0 1 .269-.43l13.468-6.681a1.315 1.315 0 0 0 .667-1.682 1.3 1.3 0 0 0 -1.764-.628l-15.179 7.532-12.114-6.012a.6.6 0 0 1 0-1.077"/><path d="m9 77v-21h4.81v16.824h9.19v4.176zm32.658-21v4.176h-10.811v4.324h9.724v4h-9.724v4.356h11.153v4.144h-16v-21z"/><path d="m50.685 60.741a1.706 1.706 0 0 0 -.673 1.408 1.578 1.578 0 0 0 .823 1.393 15.387 15.387 0 0 0 3.8 1.22 10.9 10.9 0 0 1 4.621 2.112 5.11 5.11 0 0 1 1.644 4.108 5.339 5.339 0 0 1 -2.108 4.381 8.643 8.643 0 0 1 -5.548 1.68 13.117 13.117 0 0 1 -8.944-3.533l2.781-3.275q3.379 2.844 6.251 2.844a3.391 3.391 0 0 0 2.02-.531 1.685 1.685 0 0 0 .732-1.437 1.657 1.657 0 0 0 -.778-1.436 10.411 10.411 0 0 0 -3.08-1.077 13.707 13.707 0 0 1 -5.34-2.169 5.021 5.021 0 0 1 -1.69-4.194 5.123 5.123 0 0 1 2.139-4.41 8.854 8.854 0 0 1 5.34-1.551 13.317 13.317 0 0 1 4.187.69 11.34 11.34 0 0 1 3.649 1.953l-2.363 3.275a9.44 9.44 0 0 0 -5.623-1.982 2.9 2.9 0 0 0 -1.84.531z"/><path d="m69.5 60.741a1.7 1.7 0 0 0 -.674 1.408 1.578 1.578 0 0 0 .823 1.393 15.387 15.387 0 0 0 3.8 1.22 10.9 10.9 0 0 1 4.621 2.112 5.107 5.107 0 0 1 1.645 4.108 5.34 5.34 0 0 1 -2.109 4.381 8.641 8.641 0 0 1 -5.548 1.68 13.117 13.117 0 0 1 -8.943-3.533l2.785-3.275q3.379 2.844 6.251 2.844a3.388 3.388 0 0 0 2.02-.531 1.686 1.686 0 0 0 .733-1.437 1.657 1.657 0 0 0 -.778-1.436 10.432 10.432 0 0 0 -3.084-1.075 13.707 13.707 0 0 1 -5.34-2.169 5.02 5.02 0 0 1 -1.689-4.194 5.125 5.125 0 0 1 2.138-4.41 8.856 8.856 0 0 1 5.34-1.551 13.312 13.312 0 0 1 4.187.69 11.329 11.329 0 0 1 3.649 1.953l-2.363 3.275a9.435 9.435 0 0 0 -5.623-1.982 2.9 2.9 0 0 0 -1.84.531"/><path d="m99.017 67.015a6.86 6.86 0 0 0 -1.88-4.86 6.319 6.319 0 0 0 -9.244 0 7.2 7.2 0 0 0 0 9.705 6.349 6.349 0 0 0 9.244 0 6.808 6.808 0 0 0 1.88-4.845zm1.66 7.831a12.178 12.178 0 0 1 -16.355 0 10.928 10.928 0 0 1 0-15.692 12.182 12.182 0 0 1 16.358 0 10.928 10.928 0 0 1 0 15.692m20.72-18.846h4.6v21h-4.6l-9.8-13.159v13.159h-4.6v-21h4.3l10.1 13.52z"/></g><path d="m142.571 71.232a6.165 6.165 0 0 0 1.723-4.717 6.318 6.318 0 0 0 -1.723-4.761q-1.724-1.668-5.29-1.668h-2.607v12.768h2.968a6.923 6.923 0 0 0 4.93-1.622m3.428-12.483a9.86 9.86 0 0 1 3 7.646 10.337 10.337 0 0 1 -2.922 7.751q-2.922 2.854-8.916 2.854h-7.162v-21h7.4q5.6 0 8.6 2.75m21.658-2.75v4.176h-10.812v4.324h9.725v4h-9.725v4.356h11.154v4.144h-16v-21z" fill="#ffa400"/><path d="m176.687 60.791a1.729 1.729 0 0 0 -.674 1.423 1.6 1.6 0 0 0 .823 1.408 15.3 15.3 0 0 0 3.8 1.233 10.851 10.851 0 0 1 4.62 2.134 5.191 5.191 0 0 1 1.645 4.152 5.412 5.412 0 0 1 -2.109 4.427 8.572 8.572 0 0 1 -5.547 1.7 13.042 13.042 0 0 1 -8.944-3.572l2.782-3.309q3.378 2.874 6.25 2.874a3.351 3.351 0 0 0 2.02-.537 1.709 1.709 0 0 0 .733-1.452 1.675 1.675 0 0 0 -.778-1.45 10.292 10.292 0 0 0 -3.081-1.09 13.616 13.616 0 0 1 -5.34-2.191 5.1 5.1 0 0 1 -1.687-4.241 5.2 5.2 0 0 1 2.138-4.455 8.785 8.785 0 0 1 5.34-1.568 13.192 13.192 0 0 1 4.188.7 11.289 11.289 0 0 1 3.648 1.974l-2.362 3.31a9.381 9.381 0 0 0 -5.624-2 2.878 2.878 0 0 0 -1.841.53z" fill="#ffa400"/><path d="m190 56h4.835v8.623l8.183-8.623h5.982l-8.617 9.283q1.118 1.5 4.123 5.6 2.241 3.065 4.494 6.117h-5.641l-6.354-8.292-2.17 2.343v5.949h-4.835zm29.209-1.207a.942.942 0 0 0 .283-.767.851.851 0 0 0 -.29-.739 1.843 1.843 0 0 0 -1.022-.207h-1.147v1.948h1.119a1.72 1.72 0 0 0 1.057-.235zm1.208-.76a1.567 1.567 0 0 1 -1.174 1.685l1.437 1.948h-1.16l-1.3-1.81h-1.188v1.81h-.94v-5.4h2.031a2.872 2.872 0 0 1 1.761.42 1.615 1.615 0 0 1 .532 1.347m.7 4.075a4.418 4.418 0 0 0 .014-6.2 4.387 4.387 0 0 0 -6.209.007 4.446 4.446 0 0 0 -.014 6.208 4.158 4.158 0 0 0 3.093 1.283 4.207 4.207 0 0 0 3.115-1.3m.421-6.644a4.985 4.985 0 1 1 -3.536-1.462 4.8 4.8 0 0 1 3.536 1.464z" fill="#ffa400"/></g></svg>